<svg xmlns="http://www.w3.org/2000/svg" width="16" height="16" viewBox="0 0 16 16" fill="none">
  <path d="M8 0C3.58 0 0 3.58 0 8C0 11.54 2.29 14.53 5.47 15.59C5.87 15.66 6.02 15.41 6.02 15.16C6.02 14.96 6.01 14.39 6.01 13.72C4 14.09 3.48 13.23 3.32 12.78C3.23 12.55 2.84 11.84 2.49 11.65C2.21 11.5 1.82 11.14 2.48 11.13C3.08 11.11 3.53 11.69 3.68 11.93C4.41 13.3 5.65 12.97 6.04 12.8C6.11 12.29 6.33 11.96 6.57 11.77C4.81 11.57 2.91 10.82 2.91 7.73C2.91 6.84 3.23 6.16 3.75 5.65C3.67 5.46 3.4 4.65 3.82 3.49C3.82 3.49 4.5 3.27 6.03 4.39C6.67 4.2 7.34 4.1 8 4.1C8.66 4.1 9.34 4.2 9.97 4.39C11.5 3.27 12.18 3.49 12.18 3.49C12.6 4.65 12.33 5.46 12.25 5.65C12.77 6.16 13.09 6.84 13.09 7.73C13.09 10.82 11.19 11.57 9.43 11.77C9.67 11.96 9.89 12.29 9.96 12.8C10.35 12.97 11.59 13.3 12.32 11.93C12.47 11.69 12.92 11.11 13.51 11.13C14.17 11.14 13.78 11.5 13.5 11.65C13.15 11.84 12.76 12.55 12.68 12.78C12.52 13.23 12 14.09 10.01 13.72C10.01 14.39 10 14.96 10 15.16C10 15.41 10.15 15.66 10.55 15.59C13.71 14.53 16 11.53 16 8C16 3.58 12.42 0 8 0V0Z" fill="white"/>
</svg>